<?xml version="1.0" encoding="utf-8" standalone="no"?>
<!DOCTYPE svg PUBLIC "-//W3C//DTD SVG 1.1//EN"
  "http://www.w3.org/Graphics/SVG/1.1/DTD/svg11.dtd">
<svg xmlns:xlink="http://www.w3.org/1999/xlink" width="720pt" height="216pt" viewBox="0 0 720 216" xmlns="http://www.w3.org/2000/svg" version="1.1">
 <metadata>
  <rdf:RDF xmlns:dc="http://purl.org/dc/elements/1.1/" xmlns:cc="http://creativecommons.org/ns#" xmlns:rdf="http://www.w3.org/1999/02/22-rdf-syntax-ns#">
   <cc:Work>
    <dc:type rdf:resource="http://purl.org/dc/dcmitype/StillImage"/>
    <dc:date>2024-12-01T20:05:59.248419</dc:date>
    <dc:format>image/svg+xml</dc:format>
    <dc:creator>
     <cc:Agent>
      <dc:title>Matplotlib v3.8.0, https://matplotlib.org/</dc:title>
     </cc:Agent>
    </dc:creator>
   </cc:Work>
  </rdf:RDF>
 </metadata>
 <defs>
  <style type="text/css">*{stroke-linejoin: round; stroke-linecap: butt}</style>
 </defs>
 <g id="figure_1">
  <g id="patch_1">
   <path d="M 0 216 
L 720 216 
L 720 0 
L 0 0 
z
" style="fill: #ffffff"/>
  </g>
  <g id="axes_1">
   <g id="patch_2">
    <path d="M 65.45 191.16 
L 659.32 191.16 
L 659.32 30.72 
L 65.45 30.72 
z
" style="fill: #ffffff"/>
   </g>
   <g id="patch_3">
    <path d="M 92.444091 191.16 
L 102.350179 191.16 
L 102.350179 191.150722 
L 92.444091 191.150722 
z
" clip-path="url(#pa59a12f85c)" style="fill: #0000ff; opacity: 0.7"/>
   </g>
   <g id="patch_4">
    <path d="M 117.209312 191.16 
L 127.1154 191.16 
L 127.1154 191.15332 
L 117.209312 191.15332 
z
" clip-path="url(#pa59a12f85c)" style="fill: #0000ff; opacity: 0.7"/>
   </g>
   <g id="patch_5">
    <path d="M 141.974533 191.16 
L 151.880621 191.16 
L 151.880621 191.150846 
L 141.974533 191.150846 
z
" clip-path="url(#pa59a12f85c)" style="fill: #0000ff; opacity: 0.7"/>
   </g>
   <g id="patch_6">
    <path d="M 166.739754 191.16 
L 176.645842 191.16 
L 176.645842 191.155794 
L 166.739754 191.155794 
z
" clip-path="url(#pa59a12f85c)" style="fill: #0000ff; opacity: 0.7"/>
   </g>
   <g id="patch_7">
    <path d="M 191.504975 191.16 
L 201.411063 191.16 
L 201.411063 191.152454 
L 191.504975 191.152454 
z
" clip-path="url(#pa59a12f85c)" style="fill: #0000ff; opacity: 0.7"/>
   </g>
   <g id="patch_8">
    <path d="M 216.270196 191.16 
L 226.176284 191.16 
L 226.176284 191.151093 
L 216.270196 191.151093 
z
" clip-path="url(#pa59a12f85c)" style="fill: #0000ff; opacity: 0.7"/>
   </g>
   <g id="patch_9">
    <path d="M 241.035417 191.16 
L 250.941505 191.16 
L 250.941505 191.155918 
L 241.035417 191.155918 
z
" clip-path="url(#pa59a12f85c)" style="fill: #0000ff; opacity: 0.7"/>
   </g>
   <g id="patch_10">
    <path d="M 265.800638 191.16 
L 275.706726 191.16 
L 275.706726 191.153196 
L 265.800638 191.153196 
z
" clip-path="url(#pa59a12f85c)" style="fill: #0000ff; opacity: 0.7"/>
   </g>
   <g id="patch_11">
    <path d="M 290.565859 191.16 
L 300.471947 191.16 
L 300.471947 191.151217 
L 290.565859 191.151217 
z
" clip-path="url(#pa59a12f85c)" style="fill: #0000ff; opacity: 0.7"/>
   </g>
   <g id="patch_12">
    <path d="M 315.33108 191.16 
L 325.237168 191.16 
L 325.237168 191.149485 
L 315.33108 191.149485 
z
" clip-path="url(#pa59a12f85c)" style="fill: #0000ff; opacity: 0.7"/>
   </g>
   <g id="patch_13">
    <path d="M 340.096301 191.16 
L 350.002389 191.16 
L 350.002389 191.137114 
L 340.096301 191.137114 
z
" clip-path="url(#pa59a12f85c)" style="fill: #0000ff; opacity: 0.7"/>
   </g>
   <g id="patch_14">
    <path d="M 364.861522 191.16 
L 374.767611 191.16 
L 374.767611 191.151341 
L 364.861522 191.151341 
z
" clip-path="url(#pa59a12f85c)" style="fill: #0000ff; opacity: 0.7"/>
   </g>
   <g id="patch_15">
    <path d="M 389.626743 191.16 
L 399.532832 191.16 
L 399.532832 191.157155 
L 389.626743 191.157155 
z
" clip-path="url(#pa59a12f85c)" style="fill: #0000ff; opacity: 0.7"/>
   </g>
   <g id="patch_16">
    <path d="M 414.391964 191.16 
L 424.298053 191.16 
L 424.298053 191.12561 
L 414.391964 191.12561 
z
" clip-path="url(#pa59a12f85c)" style="fill: #0000ff; opacity: 0.7"/>
   </g>
   <g id="patch_17">
    <path d="M 439.157185 191.16 
L 449.063274 191.16 
L 449.063274 191.155052 
L 439.157185 191.155052 
z
" clip-path="url(#pa59a12f85c)" style="fill: #0000ff; opacity: 0.7"/>
   </g>
   <g id="patch_18">
    <path d="M 463.922406 191.16 
L 473.828495 191.16 
L 473.828495 191.157526 
L 463.922406 191.157526 
z
" clip-path="url(#pa59a12f85c)" style="fill: #0000ff; opacity: 0.7"/>
   </g>
   <g id="patch_19">
    <path d="M 488.687627 191.16 
L 498.593716 191.16 
L 498.593716 191.156041 
L 488.687627 191.156041 
z
" clip-path="url(#pa59a12f85c)" style="fill: #0000ff; opacity: 0.7"/>
   </g>
   <g id="patch_20">
    <path d="M 513.452848 191.16 
L 523.358937 191.16 
L 523.358937 191.15765 
L 513.452848 191.15765 
z
" clip-path="url(#pa59a12f85c)" style="fill: #0000ff; opacity: 0.7"/>
   </g>
   <g id="patch_21">
    <path d="M 538.218069 191.16 
L 548.124158 191.16 
L 548.124158 191.14998 
L 538.218069 191.14998 
z
" clip-path="url(#pa59a12f85c)" style="fill: #0000ff; opacity: 0.7"/>
   </g>
   <g id="patch_22">
    <path d="M 562.98329 191.16 
L 572.889379 191.16 
L 572.889379 191.156289 
L 562.98329 191.156289 
z
" clip-path="url(#pa59a12f85c)" style="fill: #0000ff; opacity: 0.7"/>
   </g>
   <g id="patch_23">
    <path d="M 587.748511 191.16 
L 597.6546 191.16 
L 597.6546 191.153196 
L 587.748511 191.153196 
z
" clip-path="url(#pa59a12f85c)" style="fill: #0000ff; opacity: 0.7"/>
   </g>
   <g id="patch_24">
    <path d="M 612.513732 191.16 
L 622.419821 191.16 
L 622.419821 191.158144 
L 612.513732 191.158144 
z
" clip-path="url(#pa59a12f85c)" style="fill: #0000ff; opacity: 0.7"/>
   </g>
   <g id="patch_25">
    <path d="M 102.350179 191.16 
L 112.256268 191.16 
L 112.256268 100.620218 
L 102.350179 100.620218 
z
" clip-path="url(#pa59a12f85c)" style="fill: #ff0000; opacity: 0.7"/>
   </g>
   <g id="patch_26">
    <path d="M 127.1154 191.16 
L 137.021489 191.16 
L 137.021489 147.098588 
L 127.1154 147.098588 
z
" clip-path="url(#pa59a12f85c)" style="fill: #ff0000; opacity: 0.7"/>
   </g>
   <g id="patch_27">
    <path d="M 151.880621 191.16 
L 161.78671 191.16 
L 161.78671 130.978034 
L 151.880621 130.978034 
z
" clip-path="url(#pa59a12f85c)" style="fill: #ff0000; opacity: 0.7"/>
   </g>
   <g id="patch_28">
    <path d="M 176.645842 191.16 
L 186.551931 191.16 
L 186.551931 167.664497 
L 176.645842 167.664497 
z
" clip-path="url(#pa59a12f85c)" style="fill: #ff0000; opacity: 0.7"/>
   </g>
   <g id="patch_29">
    <path d="M 201.411063 191.16 
L 211.317152 191.16 
L 211.317152 129.036971 
L 201.411063 129.036971 
z
" clip-path="url(#pa59a12f85c)" style="fill: #ff0000; opacity: 0.7"/>
   </g>
   <g id="patch_30">
    <path d="M 226.176284 191.16 
L 236.082373 191.16 
L 236.082373 132.612678 
L 226.176284 132.612678 
z
" clip-path="url(#pa59a12f85c)" style="fill: #ff0000; opacity: 0.7"/>
   </g>
   <g id="patch_31">
    <path d="M 250.941505 191.16 
L 260.847594 191.16 
L 260.847594 134.789523 
L 250.941505 134.789523 
z
" clip-path="url(#pa59a12f85c)" style="fill: #ff0000; opacity: 0.7"/>
   </g>
   <g id="patch_32">
    <path d="M 275.706726 191.16 
L 285.612815 191.16 
L 285.612815 161.664164 
L 275.706726 161.664164 
z
" clip-path="url(#pa59a12f85c)" style="fill: #ff0000; opacity: 0.7"/>
   </g>
   <g id="patch_33">
    <path d="M 300.471947 191.16 
L 310.378036 191.16 
L 310.378036 90.334975 
L 300.471947 90.334975 
z
" clip-path="url(#pa59a12f85c)" style="fill: #ff0000; opacity: 0.7"/>
   </g>
   <g id="patch_34">
    <path d="M 325.237168 191.16 
L 335.143257 191.16 
L 335.143257 125.865782 
L 325.237168 125.865782 
z
" clip-path="url(#pa59a12f85c)" style="fill: #ff0000; opacity: 0.7"/>
   </g>
   <g id="patch_35">
    <path d="M 350.002389 191.16 
L 359.908478 191.16 
L 359.908478 93.691722 
L 350.002389 93.691722 
z
" clip-path="url(#pa59a12f85c)" style="fill: #ff0000; opacity: 0.7"/>
   </g>
   <g id="patch_36">
    <path d="M 374.767611 191.16 
L 384.673699 191.16 
L 384.673699 106.588264 
L 374.767611 106.588264 
z
" clip-path="url(#pa59a12f85c)" style="fill: #ff0000; opacity: 0.7"/>
   </g>
   <g id="patch_37">
    <path d="M 399.532832 191.16 
L 409.43892 191.16 
L 409.43892 164.975017 
L 399.532832 164.975017 
z
" clip-path="url(#pa59a12f85c)" style="fill: #ff0000; opacity: 0.7"/>
   </g>
   <g id="patch_38">
    <path d="M 424.298053 191.16 
L 434.204141 191.16 
L 434.204141 38.36 
L 424.298053 38.36 
z
" clip-path="url(#pa59a12f85c)" style="fill: #ff0000; opacity: 0.7"/>
   </g>
   <g id="patch_39">
    <path d="M 449.063274 191.16 
L 458.969362 191.16 
L 458.969362 118.792551 
L 449.063274 118.792551 
z
" clip-path="url(#pa59a12f85c)" style="fill: #ff0000; opacity: 0.7"/>
   </g>
   <g id="patch_40">
    <path d="M 473.828495 191.16 
L 483.734583 191.16 
L 483.734583 170.612522 
L 473.828495 170.612522 
z
" clip-path="url(#pa59a12f85c)" style="fill: #ff0000; opacity: 0.7"/>
   </g>
   <g id="patch_41">
    <path d="M 498.593716 191.16 
L 508.499804 191.16 
L 508.499804 173.041974 
L 498.593716 173.041974 
z
" clip-path="url(#pa59a12f85c)" style="fill: #ff0000; opacity: 0.7"/>
   </g>
   <g id="patch_42">
    <path d="M 523.358937 191.16 
L 533.265025 191.16 
L 533.265025 169.325862 
L 523.358937 169.325862 
z
" clip-path="url(#pa59a12f85c)" style="fill: #ff0000; opacity: 0.7"/>
   </g>
   <g id="patch_43">
    <path d="M 548.124158 191.16 
L 558.030246 191.16 
L 558.030246 161.673937 
L 548.124158 161.673937 
z
" clip-path="url(#pa59a12f85c)" style="fill: #ff0000; opacity: 0.7"/>
   </g>
   <g id="patch_44">
    <path d="M 572.889379 191.16 
L 582.795467 191.16 
L 582.795467 162.825758 
L 572.889379 162.825758 
z
" clip-path="url(#pa59a12f85c)" style="fill: #ff0000; opacity: 0.7"/>
   </g>
   <g id="patch_45">
    <path d="M 597.6546 191.16 
L 607.560688 191.16 
L 607.560688 173.628214 
L 597.6546 173.628214 
z
" clip-path="url(#pa59a12f85c)" style="fill: #ff0000; opacity: 0.7"/>
   </g>
   <g id="patch_46">
    <path d="M 622.419821 191.16 
L 632.325909 191.16 
L 632.325909 181.498108 
L 622.419821 181.498108 
z
" clip-path="url(#pa59a12f85c)" style="fill: #ff0000; opacity: 0.7"/>
   </g>
   <g id="matplotlib.axis_1">
    <g id="xtick_1">
     <g id="line2d_1">
      <defs>
       <path id="mdbfa96fe2a" d="M 0 0 
L 0 3.5 
" style="stroke: #000000; stroke-width: 0.8"/>
      </defs>
      <g>
       <use xlink:href="#mdbfa96fe2a" x="102.350179" y="191.16" style="stroke: #000000; stroke-width: 0.8"/>
      </g>
     </g>
    </g>
    <g id="xtick_2">
     <g id="line2d_2">
      <g>
       <use xlink:href="#mdbfa96fe2a" x="127.1154" y="191.16" style="stroke: #000000; stroke-width: 0.8"/>
      </g>
     </g>
    </g>
    <g id="xtick_3">
     <g id="line2d_3">
      <g>
       <use xlink:href="#mdbfa96fe2a" x="151.880621" y="191.16" style="stroke: #000000; stroke-width: 0.8"/>
      </g>
     </g>
    </g>
    <g id="xtick_4">
     <g id="line2d_4">
      <g>
       <use xlink:href="#mdbfa96fe2a" x="176.645842" y="191.16" style="stroke: #000000; stroke-width: 0.8"/>
      </g>
     </g>
    </g>
    <g id="xtick_5">
     <g id="line2d_5">
      <g>
       <use xlink:href="#mdbfa96fe2a" x="201.411063" y="191.16" style="stroke: #000000; stroke-width: 0.8"/>
      </g>
     </g>
    </g>
    <g id="xtick_6">
     <g id="line2d_6">
      <g>
       <use xlink:href="#mdbfa96fe2a" x="226.176284" y="191.16" style="stroke: #000000; stroke-width: 0.8"/>
      </g>
     </g>
    </g>
    <g id="xtick_7">
     <g id="line2d_7">
      <g>
       <use xlink:href="#mdbfa96fe2a" x="250.941505" y="191.16" style="stroke: #000000; stroke-width: 0.8"/>
      </g>
     </g>
    </g>
    <g id="xtick_8">
     <g id="line2d_8">
      <g>
       <use xlink:href="#mdbfa96fe2a" x="275.706726" y="191.16" style="stroke: #000000; stroke-width: 0.8"/>
      </g>
     </g>
    </g>
    <g id="xtick_9">
     <g id="line2d_9">
      <g>
       <use xlink:href="#mdbfa96fe2a" x="300.471947" y="191.16" style="stroke: #000000; stroke-width: 0.8"/>
      </g>
     </g>
    </g>
    <g id="xtick_10">
     <g id="line2d_10">
      <g>
       <use xlink:href="#mdbfa96fe2a" x="325.237168" y="191.16" style="stroke: #000000; stroke-width: 0.8"/>
      </g>
     </g>
    </g>
    <g id="xtick_11">
     <g id="line2d_11">
      <g>
       <use xlink:href="#mdbfa96fe2a" x="350.002389" y="191.16" style="stroke: #000000; stroke-width: 0.8"/>
      </g>
     </g>
    </g>
    <g id="xtick_12">
     <g id="line2d_12">
      <g>
       <use xlink:href="#mdbfa96fe2a" x="374.767611" y="191.16" style="stroke: #000000; stroke-width: 0.8"/>
      </g>
     </g>
    </g>
    <g id="xtick_13">
     <g id="line2d_13">
      <g>
       <use xlink:href="#mdbfa96fe2a" x="399.532832" y="191.16" style="stroke: #000000; stroke-width: 0.8"/>
      </g>
     </g>
    </g>
    <g id="xtick_14">
     <g id="line2d_14">
      <g>
       <use xlink:href="#mdbfa96fe2a" x="424.298053" y="191.16" style="stroke: #000000; stroke-width: 0.8"/>
      </g>
     </g>
    </g>
    <g id="xtick_15">
     <g id="line2d_15">
      <g>
       <use xlink:href="#mdbfa96fe2a" x="449.063274" y="191.16" style="stroke: #000000; stroke-width: 0.8"/>
      </g>
     </g>
    </g>
    <g id="xtick_16">
     <g id="line2d_16">
      <g>
       <use xlink:href="#mdbfa96fe2a" x="473.828495" y="191.16" style="stroke: #000000; stroke-width: 0.8"/>
      </g>
     </g>
    </g>
    <g id="xtick_17">
     <g id="line2d_17">
      <g>
       <use xlink:href="#mdbfa96fe2a" x="498.593716" y="191.16" style="stroke: #000000; stroke-width: 0.8"/>
      </g>
     </g>
    </g>
    <g id="xtick_18">
     <g id="line2d_18">
      <g>
       <use xlink:href="#mdbfa96fe2a" x="523.358937" y="191.16" style="stroke: #000000; stroke-width: 0.8"/>
      </g>
     </g>
    </g>
    <g id="xtick_19">
     <g id="line2d_19">
      <g>
       <use xlink:href="#mdbfa96fe2a" x="548.124158" y="191.16" style="stroke: #000000; stroke-width: 0.8"/>
      </g>
     </g>
    </g>
    <g id="xtick_20">
     <g id="line2d_20">
      <g>
       <use xlink:href="#mdbfa96fe2a" x="572.889379" y="191.16" style="stroke: #000000; stroke-width: 0.8"/>
      </g>
     </g>
    </g>
    <g id="xtick_21">
     <g id="line2d_21">
      <g>
       <use xlink:href="#mdbfa96fe2a" x="597.6546" y="191.16" style="stroke: #000000; stroke-width: 0.8"/>
      </g>
     </g>
    </g>
    <g id="xtick_22">
     <g id="line2d_22">
      <g>
       <use xlink:href="#mdbfa96fe2a" x="622.419821" y="191.16" style="stroke: #000000; stroke-width: 0.8"/>
      </g>
     </g>
    </g>
   </g>
   <g id="matplotlib.axis_2">
    <g id="ytick_1">
     <g id="line2d_23">
      <defs>
       <path id="mdc56380764" d="M 0 0 
L -3.5 0 
" style="stroke: #000000; stroke-width: 0.8"/>
      </defs>
      <g>
       <use xlink:href="#mdc56380764" x="65.45" y="191.16" style="stroke: #000000; stroke-width: 0.8"/>
      </g>
     </g>
     <g id="text_1">
      <!-- 0.0 -->
      <g transform="translate(34.595313 196.858828) scale(0.15 -0.15)">
       <defs>
        <path id="DejaVuSans-30" d="M 2034 4250 
Q 1547 4250 1301 3770 
Q 1056 3291 1056 2328 
Q 1056 1369 1301 889 
Q 1547 409 2034 409 
Q 2525 409 2770 889 
Q 3016 1369 3016 2328 
Q 3016 3291 2770 3770 
Q 2525 4250 2034 4250 
z
M 2034 4750 
Q 2819 4750 3233 4129 
Q 3647 3509 3647 2328 
Q 3647 1150 3233 529 
Q 2819 -91 2034 -91 
Q 1250 -91 836 529 
Q 422 1150 422 2328 
Q 422 3509 836 4129 
Q 1250 4750 2034 4750 
z
" transform="scale(0.015625)"/>
        <path id="DejaVuSans-2e" d="M 684 794 
L 1344 794 
L 1344 0 
L 684 0 
L 684 794 
z
" transform="scale(0.015625)"/>
       </defs>
       <use xlink:href="#DejaVuSans-30"/>
       <use xlink:href="#DejaVuSans-2e" x="63.623047"/>
       <use xlink:href="#DejaVuSans-30" x="95.410156"/>
      </g>
     </g>
    </g>
    <g id="ytick_2">
     <g id="line2d_24">
      <g>
       <use xlink:href="#mdc56380764" x="65.45" y="129.307268" style="stroke: #000000; stroke-width: 0.8"/>
      </g>
     </g>
     <g id="text_2">
      <!-- 0.5 -->
      <g transform="translate(34.595313 135.006096) scale(0.15 -0.15)">
       <defs>
        <path id="DejaVuSans-35" d="M 691 4666 
L 3169 4666 
L 3169 4134 
L 1269 4134 
L 1269 2991 
Q 1406 3038 1543 3061 
Q 1681 3084 1819 3084 
Q 2600 3084 3056 2656 
Q 3513 2228 3513 1497 
Q 3513 744 3044 326 
Q 2575 -91 1722 -91 
Q 1428 -91 1123 -41 
Q 819 9 494 109 
L 494 744 
Q 775 591 1075 516 
Q 1375 441 1709 441 
Q 2250 441 2565 725 
Q 2881 1009 2881 1497 
Q 2881 1984 2565 2268 
Q 2250 2553 1709 2553 
Q 1456 2553 1204 2497 
Q 953 2441 691 2322 
L 691 4666 
z
" transform="scale(0.015625)"/>
       </defs>
       <use xlink:href="#DejaVuSans-30"/>
       <use xlink:href="#DejaVuSans-2e" x="63.623047"/>
       <use xlink:href="#DejaVuSans-35" x="95.410156"/>
      </g>
     </g>
    </g>
    <g id="ytick_3">
     <g id="line2d_25">
      <g>
       <use xlink:href="#mdc56380764" x="65.45" y="67.454536" style="stroke: #000000; stroke-width: 0.8"/>
      </g>
     </g>
     <g id="text_3">
      <!-- 1.0 -->
      <g transform="translate(34.595313 73.153364) scale(0.15 -0.15)">
       <defs>
        <path id="DejaVuSans-31" d="M 794 531 
L 1825 531 
L 1825 4091 
L 703 3866 
L 703 4441 
L 1819 4666 
L 2450 4666 
L 2450 531 
L 3481 531 
L 3481 0 
L 794 0 
L 794 531 
z
" transform="scale(0.015625)"/>
       </defs>
       <use xlink:href="#DejaVuSans-31"/>
       <use xlink:href="#DejaVuSans-2e" x="63.623047"/>
       <use xlink:href="#DejaVuSans-30" x="95.410156"/>
      </g>
     </g>
    </g>
    <g id="text_4">
     <!-- #POI / POPU -->
     <g transform="translate(27.475781 157.594687) rotate(-90) scale(0.15 -0.15)">
      <defs>
       <path id="DejaVuSans-23" d="M 3272 2816 
L 2363 2816 
L 2100 1772 
L 3016 1772 
L 3272 2816 
z
M 2803 4594 
L 2478 3297 
L 3391 3297 
L 3719 4594 
L 4219 4594 
L 3897 3297 
L 4872 3297 
L 4872 2816 
L 3775 2816 
L 3519 1772 
L 4513 1772 
L 4513 1294 
L 3397 1294 
L 3072 0 
L 2572 0 
L 2894 1294 
L 1978 1294 
L 1656 0 
L 1153 0 
L 1478 1294 
L 494 1294 
L 494 1772 
L 1594 1772 
L 1856 2816 
L 850 2816 
L 850 3297 
L 1978 3297 
L 2297 4594 
L 2803 4594 
z
" transform="scale(0.015625)"/>
       <path id="DejaVuSans-50" d="M 1259 4147 
L 1259 2394 
L 2053 2394 
Q 2494 2394 2734 2622 
Q 2975 2850 2975 3272 
Q 2975 3691 2734 3919 
Q 2494 4147 2053 4147 
L 1259 4147 
z
M 628 4666 
L 2053 4666 
Q 2838 4666 3239 4311 
Q 3641 3956 3641 3272 
Q 3641 2581 3239 2228 
Q 2838 1875 2053 1875 
L 1259 1875 
L 1259 0 
L 628 0 
L 628 4666 
z
" transform="scale(0.015625)"/>
       <path id="DejaVuSans-4f" d="M 2522 4238 
Q 1834 4238 1429 3725 
Q 1025 3213 1025 2328 
Q 1025 1447 1429 934 
Q 1834 422 2522 422 
Q 3209 422 3611 934 
Q 4013 1447 4013 2328 
Q 4013 3213 3611 3725 
Q 3209 4238 2522 4238 
z
M 2522 4750 
Q 3503 4750 4090 4092 
Q 4678 3434 4678 2328 
Q 4678 1225 4090 567 
Q 3503 -91 2522 -91 
Q 1538 -91 948 565 
Q 359 1222 359 2328 
Q 359 3434 948 4092 
Q 1538 4750 2522 4750 
z
" transform="scale(0.015625)"/>
       <path id="DejaVuSans-49" d="M 628 4666 
L 1259 4666 
L 1259 0 
L 628 0 
L 628 4666 
z
" transform="scale(0.015625)"/>
       <path id="DejaVuSans-20" transform="scale(0.015625)"/>
       <path id="DejaVuSans-2f" d="M 1625 4666 
L 2156 4666 
L 531 -594 
L 0 -594 
L 1625 4666 
z
" transform="scale(0.015625)"/>
       <path id="DejaVuSans-55" d="M 556 4666 
L 1191 4666 
L 1191 1831 
Q 1191 1081 1462 751 
Q 1734 422 2344 422 
Q 2950 422 3222 751 
Q 3494 1081 3494 1831 
L 3494 4666 
L 4128 4666 
L 4128 1753 
Q 4128 841 3676 375 
Q 3225 -91 2344 -91 
Q 1459 -91 1007 375 
Q 556 841 556 1753 
L 556 4666 
z
" transform="scale(0.015625)"/>
      </defs>
      <use xlink:href="#DejaVuSans-23"/>
      <use xlink:href="#DejaVuSans-50" x="83.789062"/>
      <use xlink:href="#DejaVuSans-4f" x="144.091797"/>
      <use xlink:href="#DejaVuSans-49" x="222.802734"/>
      <use xlink:href="#DejaVuSans-20" x="252.294922"/>
      <use xlink:href="#DejaVuSans-2f" x="284.082031"/>
      <use xlink:href="#DejaVuSans-20" x="317.773438"/>
      <use xlink:href="#DejaVuSans-50" x="349.560547"/>
      <use xlink:href="#DejaVuSans-4f" x="409.863281"/>
      <use xlink:href="#DejaVuSans-50" x="488.574219"/>
      <use xlink:href="#DejaVuSans-55" x="548.876953"/>
     </g>
    </g>
    <g id="text_5">
     <!-- 1e6 -->
     <g transform="translate(65.45 27.72) scale(0.15 -0.15)">
      <defs>
       <path id="DejaVuSans-65" d="M 3597 1894 
L 3597 1613 
L 953 1613 
Q 991 1019 1311 708 
Q 1631 397 2203 397 
Q 2534 397 2845 478 
Q 3156 559 3463 722 
L 3463 178 
Q 3153 47 2828 -22 
Q 2503 -91 2169 -91 
Q 1331 -91 842 396 
Q 353 884 353 1716 
Q 353 2575 817 3079 
Q 1281 3584 2069 3584 
Q 2775 3584 3186 3129 
Q 3597 2675 3597 1894 
z
M 3022 2063 
Q 3016 2534 2758 2815 
Q 2500 3097 2075 3097 
Q 1594 3097 1305 2825 
Q 1016 2553 972 2059 
L 3022 2063 
z
" transform="scale(0.015625)"/>
       <path id="DejaVuSans-36" d="M 2113 2584 
Q 1688 2584 1439 2293 
Q 1191 2003 1191 1497 
Q 1191 994 1439 701 
Q 1688 409 2113 409 
Q 2538 409 2786 701 
Q 3034 994 3034 1497 
Q 3034 2003 2786 2293 
Q 2538 2584 2113 2584 
z
M 3366 4563 
L 3366 3988 
Q 3128 4100 2886 4159 
Q 2644 4219 2406 4219 
Q 1781 4219 1451 3797 
Q 1122 3375 1075 2522 
Q 1259 2794 1537 2939 
Q 1816 3084 2150 3084 
Q 2853 3084 3261 2657 
Q 3669 2231 3669 1497 
Q 3669 778 3244 343 
Q 2819 -91 2113 -91 
Q 1303 -91 875 529 
Q 447 1150 447 2328 
Q 447 3434 972 4092 
Q 1497 4750 2381 4750 
Q 2619 4750 2861 4703 
Q 3103 4656 3366 4563 
z
" transform="scale(0.015625)"/>
      </defs>
      <use xlink:href="#DejaVuSans-31"/>
      <use xlink:href="#DejaVuSans-65" x="63.623047"/>
      <use xlink:href="#DejaVuSans-36" x="125.146484"/>
     </g>
    </g>
   </g>
   <g id="patch_47">
    <path d="M 65.45 191.16 
L 65.45 30.72 
" style="fill: none; stroke: #000000; stroke-width: 0.8; stroke-linejoin: miter; stroke-linecap: square"/>
   </g>
   <g id="patch_48">
    <path d="M 659.32 191.16 
L 659.32 30.72 
" style="fill: none; stroke: #000000; stroke-width: 0.8; stroke-linejoin: miter; stroke-linecap: square"/>
   </g>
   <g id="patch_49">
    <path d="M 65.45 191.16 
L 659.32 191.16 
" style="fill: none; stroke: #000000; stroke-width: 0.8; stroke-linejoin: miter; stroke-linecap: square"/>
   </g>
   <g id="patch_50">
    <path d="M 65.45 30.72 
L 659.32 30.72 
" style="fill: none; stroke: #000000; stroke-width: 0.8; stroke-linejoin: miter; stroke-linecap: square"/>
   </g>
   <g id="legend_1">
    <g id="patch_51">
     <path d="M 75.95 86.754375 
L 164.825 86.754375 
Q 167.825 86.754375 167.825 83.754375 
L 167.825 41.22 
Q 167.825 38.22 164.825 38.22 
L 75.95 38.22 
Q 72.95 38.22 72.95 41.22 
L 72.95 83.754375 
Q 72.95 86.754375 75.95 86.754375 
z
" style="fill: #ffffff; opacity: 0.8; stroke: #cccccc; stroke-linejoin: miter"/>
    </g>
    <g id="patch_52">
     <path d="M 78.95 55.617656 
L 108.95 55.617656 
L 108.95 45.117656 
L 78.95 45.117656 
z
" style="fill: #0000ff; opacity: 0.7"/>
    </g>
    <g id="text_6">
     <!-- POI -->
     <g transform="translate(120.95 55.617656) scale(0.15 -0.15)">
      <use xlink:href="#DejaVuSans-50"/>
      <use xlink:href="#DejaVuSans-4f" x="60.302734"/>
      <use xlink:href="#DejaVuSans-49" x="139.013672"/>
     </g>
    </g>
    <g id="patch_53">
     <path d="M 78.95 77.634844 
L 108.95 77.634844 
L 108.95 67.134844 
L 78.95 67.134844 
z
" style="fill: #ff0000; opacity: 0.7"/>
    </g>
    <g id="text_7">
     <!-- POPU -->
     <g transform="translate(120.95 77.634844) scale(0.15 -0.15)">
      <use xlink:href="#DejaVuSans-50"/>
      <use xlink:href="#DejaVuSans-4f" x="60.302734"/>
      <use xlink:href="#DejaVuSans-50" x="139.013672"/>
      <use xlink:href="#DejaVuSans-55" x="199.316406"/>
     </g>
    </g>
   </g>
  </g>
  <g id="axes_2">
   <g id="matplotlib.axis_3">
    <g id="ytick_4">
     <g id="line2d_26">
      <defs>
       <path id="m698e42ac90" d="M 0 0 
L 3.5 0 
" style="stroke: #000000; stroke-width: 0.8"/>
      </defs>
      <g>
       <use xlink:href="#m698e42ac90" x="659.32" y="190.522538" style="stroke: #000000; stroke-width: 0.8"/>
      </g>
     </g>
     <g id="text_8">
      <!-- 0 -->
      <g transform="translate(666.32 196.221366) scale(0.15 -0.15)">
       <use xlink:href="#DejaVuSans-30"/>
      </g>
     </g>
    </g>
    <g id="ytick_5">
     <g id="line2d_27">
      <g>
       <use xlink:href="#m698e42ac90" x="659.32" y="150.430579" style="stroke: #000000; stroke-width: 0.8"/>
      </g>
     </g>
     <g id="text_9">
      <!-- 5 -->
      <g transform="translate(666.32 156.129407) scale(0.15 -0.15)">
       <use xlink:href="#DejaVuSans-35"/>
      </g>
     </g>
    </g>
    <g id="ytick_6">
     <g id="line2d_28">
      <g>
       <use xlink:href="#m698e42ac90" x="659.32" y="110.338621" style="stroke: #000000; stroke-width: 0.8"/>
      </g>
     </g>
     <g id="text_10">
      <!-- 10 -->
      <g transform="translate(666.32 116.037449) scale(0.15 -0.15)">
       <use xlink:href="#DejaVuSans-31"/>
       <use xlink:href="#DejaVuSans-30" x="63.623047"/>
      </g>
     </g>
    </g>
    <g id="ytick_7">
     <g id="line2d_29">
      <g>
       <use xlink:href="#m698e42ac90" x="659.32" y="70.246662" style="stroke: #000000; stroke-width: 0.8"/>
      </g>
     </g>
     <g id="text_11">
      <!-- 15 -->
      <g transform="translate(666.32 75.94549) scale(0.15 -0.15)">
       <use xlink:href="#DejaVuSans-31"/>
       <use xlink:href="#DejaVuSans-35" x="63.623047"/>
      </g>
     </g>
    </g>
    <g id="text_12">
     <!-- Percentage (%) -->
     <g transform="translate(700.805156 168.486094) rotate(-90) scale(0.15 -0.15)">
      <defs>
       <path id="DejaVuSans-72" d="M 2631 2963 
Q 2534 3019 2420 3045 
Q 2306 3072 2169 3072 
Q 1681 3072 1420 2755 
Q 1159 2438 1159 1844 
L 1159 0 
L 581 0 
L 581 3500 
L 1159 3500 
L 1159 2956 
Q 1341 3275 1631 3429 
Q 1922 3584 2338 3584 
Q 2397 3584 2469 3576 
Q 2541 3569 2628 3553 
L 2631 2963 
z
" transform="scale(0.015625)"/>
       <path id="DejaVuSans-63" d="M 3122 3366 
L 3122 2828 
Q 2878 2963 2633 3030 
Q 2388 3097 2138 3097 
Q 1578 3097 1268 2742 
Q 959 2388 959 1747 
Q 959 1106 1268 751 
Q 1578 397 2138 397 
Q 2388 397 2633 464 
Q 2878 531 3122 666 
L 3122 134 
Q 2881 22 2623 -34 
Q 2366 -91 2075 -91 
Q 1284 -91 818 406 
Q 353 903 353 1747 
Q 353 2603 823 3093 
Q 1294 3584 2113 3584 
Q 2378 3584 2631 3529 
Q 2884 3475 3122 3366 
z
" transform="scale(0.015625)"/>
       <path id="DejaVuSans-6e" d="M 3513 2113 
L 3513 0 
L 2938 0 
L 2938 2094 
Q 2938 2591 2744 2837 
Q 2550 3084 2163 3084 
Q 1697 3084 1428 2787 
Q 1159 2491 1159 1978 
L 1159 0 
L 581 0 
L 581 3500 
L 1159 3500 
L 1159 2956 
Q 1366 3272 1645 3428 
Q 1925 3584 2291 3584 
Q 2894 3584 3203 3211 
Q 3513 2838 3513 2113 
z
" transform="scale(0.015625)"/>
       <path id="DejaVuSans-74" d="M 1172 4494 
L 1172 3500 
L 2356 3500 
L 2356 3053 
L 1172 3053 
L 1172 1153 
Q 1172 725 1289 603 
Q 1406 481 1766 481 
L 2356 481 
L 2356 0 
L 1766 0 
Q 1100 0 847 248 
Q 594 497 594 1153 
L 594 3053 
L 172 3053 
L 172 3500 
L 594 3500 
L 594 4494 
L 1172 4494 
z
" transform="scale(0.015625)"/>
       <path id="DejaVuSans-61" d="M 2194 1759 
Q 1497 1759 1228 1600 
Q 959 1441 959 1056 
Q 959 750 1161 570 
Q 1363 391 1709 391 
Q 2188 391 2477 730 
Q 2766 1069 2766 1631 
L 2766 1759 
L 2194 1759 
z
M 3341 1997 
L 3341 0 
L 2766 0 
L 2766 531 
Q 2569 213 2275 61 
Q 1981 -91 1556 -91 
Q 1019 -91 701 211 
Q 384 513 384 1019 
Q 384 1609 779 1909 
Q 1175 2209 1959 2209 
L 2766 2209 
L 2766 2266 
Q 2766 2663 2505 2880 
Q 2244 3097 1772 3097 
Q 1472 3097 1187 3025 
Q 903 2953 641 2809 
L 641 3341 
Q 956 3463 1253 3523 
Q 1550 3584 1831 3584 
Q 2591 3584 2966 3190 
Q 3341 2797 3341 1997 
z
" transform="scale(0.015625)"/>
       <path id="DejaVuSans-67" d="M 2906 1791 
Q 2906 2416 2648 2759 
Q 2391 3103 1925 3103 
Q 1463 3103 1205 2759 
Q 947 2416 947 1791 
Q 947 1169 1205 825 
Q 1463 481 1925 481 
Q 2391 481 2648 825 
Q 2906 1169 2906 1791 
z
M 3481 434 
Q 3481 -459 3084 -895 
Q 2688 -1331 1869 -1331 
Q 1566 -1331 1297 -1286 
Q 1028 -1241 775 -1147 
L 775 -588 
Q 1028 -725 1275 -790 
Q 1522 -856 1778 -856 
Q 2344 -856 2625 -561 
Q 2906 -266 2906 331 
L 2906 616 
Q 2728 306 2450 153 
Q 2172 0 1784 0 
Q 1141 0 747 490 
Q 353 981 353 1791 
Q 353 2603 747 3093 
Q 1141 3584 1784 3584 
Q 2172 3584 2450 3431 
Q 2728 3278 2906 2969 
L 2906 3500 
L 3481 3500 
L 3481 434 
z
" transform="scale(0.015625)"/>
       <path id="DejaVuSans-28" d="M 1984 4856 
Q 1566 4138 1362 3434 
Q 1159 2731 1159 2009 
Q 1159 1288 1364 580 
Q 1569 -128 1984 -844 
L 1484 -844 
Q 1016 -109 783 600 
Q 550 1309 550 2009 
Q 550 2706 781 3412 
Q 1013 4119 1484 4856 
L 1984 4856 
z
" transform="scale(0.015625)"/>
       <path id="DejaVuSans-25" d="M 4653 2053 
Q 4381 2053 4226 1822 
Q 4072 1591 4072 1178 
Q 4072 772 4226 539 
Q 4381 306 4653 306 
Q 4919 306 5073 539 
Q 5228 772 5228 1178 
Q 5228 1588 5073 1820 
Q 4919 2053 4653 2053 
z
M 4653 2450 
Q 5147 2450 5437 2106 
Q 5728 1763 5728 1178 
Q 5728 594 5436 251 
Q 5144 -91 4653 -91 
Q 4153 -91 3862 251 
Q 3572 594 3572 1178 
Q 3572 1766 3864 2108 
Q 4156 2450 4653 2450 
z
M 1428 4353 
Q 1159 4353 1004 4120 
Q 850 3888 850 3481 
Q 850 3069 1003 2837 
Q 1156 2606 1428 2606 
Q 1700 2606 1854 2837 
Q 2009 3069 2009 3481 
Q 2009 3884 1853 4118 
Q 1697 4353 1428 4353 
z
M 4250 4750 
L 4750 4750 
L 1831 -91 
L 1331 -91 
L 4250 4750 
z
M 1428 4750 
Q 1922 4750 2215 4408 
Q 2509 4066 2509 3481 
Q 2509 2891 2217 2550 
Q 1925 2209 1428 2209 
Q 931 2209 642 2551 
Q 353 2894 353 3481 
Q 353 4063 643 4406 
Q 934 4750 1428 4750 
z
" transform="scale(0.015625)"/>
       <path id="DejaVuSans-29" d="M 513 4856 
L 1013 4856 
Q 1481 4119 1714 3412 
Q 1947 2706 1947 2009 
Q 1947 1309 1714 600 
Q 1481 -109 1013 -844 
L 513 -844 
Q 928 -128 1133 580 
Q 1338 1288 1338 2009 
Q 1338 2731 1133 3434 
Q 928 4138 513 4856 
z
" transform="scale(0.015625)"/>
      </defs>
      <use xlink:href="#DejaVuSans-50"/>
      <use xlink:href="#DejaVuSans-65" x="56.677734"/>
      <use xlink:href="#DejaVuSans-72" x="118.201172"/>
      <use xlink:href="#DejaVuSans-63" x="157.064453"/>
      <use xlink:href="#DejaVuSans-65" x="212.044922"/>
      <use xlink:href="#DejaVuSans-6e" x="273.568359"/>
      <use xlink:href="#DejaVuSans-74" x="336.947266"/>
      <use xlink:href="#DejaVuSans-61" x="376.15625"/>
      <use xlink:href="#DejaVuSans-67" x="437.435547"/>
      <use xlink:href="#DejaVuSans-65" x="500.912109"/>
      <use xlink:href="#DejaVuSans-20" x="562.435547"/>
      <use xlink:href="#DejaVuSans-28" x="594.222656"/>
      <use xlink:href="#DejaVuSans-25" x="633.236328"/>
      <use xlink:href="#DejaVuSans-29" x="728.255859"/>
     </g>
    </g>
   </g>
   <g id="line2d_30">
    <path d="M 102.350179 149.388188 
L 127.1154 160.934672 
L 151.880621 149.949476 
L 176.645842 171.839685 
L 201.411063 157.085844 
L 226.176284 151.072051 
L 250.941505 172.400973 
L 275.706726 160.373385 
L 300.471947 151.553154 
L 325.237168 143.935682 
L 350.002389 89.089883 
L 374.767611 152.114442 
L 399.532832 177.933663 
L 424.298053 38.012727 
L 449.063274 168.552145 
L 473.828495 179.537341 
L 498.593716 172.96226 
L 523.358937 180.098629 
L 548.124158 146.100648 
L 572.889379 174.084835 
L 597.6546 160.373385 
L 622.419821 182.263594 
" clip-path="url(#pa59a12f85c)" style="fill: none; stroke: #0000ff; stroke-width: 1.5; stroke-linecap: square"/>
    <defs>
     <path id="m62c351b0e8" d="M 0 3 
C 0.795609 3 1.55874 2.683901 2.12132 2.12132 
C 2.683901 1.55874 3 0.795609 3 0 
C 3 -0.795609 2.683901 -1.55874 2.12132 -2.12132 
C 1.55874 -2.683901 0.795609 -3 0 -3 
C -0.795609 -3 -1.55874 -2.683901 -2.12132 -2.12132 
C -2.683901 -1.55874 -3 -0.795609 -3 0 
C -3 0.795609 -2.683901 1.55874 -2.12132 2.12132 
C -1.55874 2.683901 -0.795609 3 0 3 
z
" style="stroke: #0000ff"/>
    </defs>
    <g clip-path="url(#pa59a12f85c)">
     <use xlink:href="#m62c351b0e8" x="102.350179" y="149.388188" style="fill: #0000ff; stroke: #0000ff"/>
     <use xlink:href="#m62c351b0e8" x="127.1154" y="160.934672" style="fill: #0000ff; stroke: #0000ff"/>
     <use xlink:href="#m62c351b0e8" x="151.880621" y="149.949476" style="fill: #0000ff; stroke: #0000ff"/>
     <use xlink:href="#m62c351b0e8" x="176.645842" y="171.839685" style="fill: #0000ff; stroke: #0000ff"/>
     <use xlink:href="#m62c351b0e8" x="201.411063" y="157.085844" style="fill: #0000ff; stroke: #0000ff"/>
     <use xlink:href="#m62c351b0e8" x="226.176284" y="151.072051" style="fill: #0000ff; stroke: #0000ff"/>
     <use xlink:href="#m62c351b0e8" x="250.941505" y="172.400973" style="fill: #0000ff; stroke: #0000ff"/>
     <use xlink:href="#m62c351b0e8" x="275.706726" y="160.373385" style="fill: #0000ff; stroke: #0000ff"/>
     <use xlink:href="#m62c351b0e8" x="300.471947" y="151.553154" style="fill: #0000ff; stroke: #0000ff"/>
     <use xlink:href="#m62c351b0e8" x="325.237168" y="143.935682" style="fill: #0000ff; stroke: #0000ff"/>
     <use xlink:href="#m62c351b0e8" x="350.002389" y="89.089883" style="fill: #0000ff; stroke: #0000ff"/>
     <use xlink:href="#m62c351b0e8" x="374.767611" y="152.114442" style="fill: #0000ff; stroke: #0000ff"/>
     <use xlink:href="#m62c351b0e8" x="399.532832" y="177.933663" style="fill: #0000ff; stroke: #0000ff"/>
     <use xlink:href="#m62c351b0e8" x="424.298053" y="38.012727" style="fill: #0000ff; stroke: #0000ff"/>
     <use xlink:href="#m62c351b0e8" x="449.063274" y="168.552145" style="fill: #0000ff; stroke: #0000ff"/>
     <use xlink:href="#m62c351b0e8" x="473.828495" y="179.537341" style="fill: #0000ff; stroke: #0000ff"/>
     <use xlink:href="#m62c351b0e8" x="498.593716" y="172.96226" style="fill: #0000ff; stroke: #0000ff"/>
     <use xlink:href="#m62c351b0e8" x="523.358937" y="180.098629" style="fill: #0000ff; stroke: #0000ff"/>
     <use xlink:href="#m62c351b0e8" x="548.124158" y="146.100648" style="fill: #0000ff; stroke: #0000ff"/>
     <use xlink:href="#m62c351b0e8" x="572.889379" y="174.084835" style="fill: #0000ff; stroke: #0000ff"/>
     <use xlink:href="#m62c351b0e8" x="597.6546" y="160.373385" style="fill: #0000ff; stroke: #0000ff"/>
     <use xlink:href="#m62c351b0e8" x="622.419821" y="182.263594" style="fill: #0000ff; stroke: #0000ff"/>
    </g>
   </g>
   <g id="line2d_31">
    <path d="M 102.350179 128.460186 
L 127.1154 160.293201 
L 151.880621 149.308004 
L 176.645842 174.40557 
L 201.411063 147.944878 
L 226.176284 150.430579 
L 250.941505 151.87389 
L 275.706726 170.316191 
L 300.471947 121.404001 
L 325.237168 145.779912 
L 350.002389 123.729335 
L 374.767611 132.549566 
L 399.532832 172.56134 
L 424.298053 85.802342 
L 449.063274 140.888693 
L 473.828495 176.410168 
L 498.593716 178.094031 
L 523.358937 175.528145 
L 548.124158 170.316191 
L 572.889379 171.11803 
L 597.6546 178.49495 
L 622.419821 183.867273 
" clip-path="url(#pa59a12f85c)" style="fill: none; stroke: #ff0000; stroke-width: 1.5; stroke-linecap: square"/>
    <defs>
     <path id="mb98c14bf60" d="M -3 3 
L 3 3 
L 3 -3 
L -3 -3 
z
" style="stroke: #ff0000; stroke-linejoin: miter"/>
    </defs>
    <g clip-path="url(#pa59a12f85c)">
     <use xlink:href="#mb98c14bf60" x="102.350179" y="128.460186" style="fill: #ff0000; stroke: #ff0000; stroke-linejoin: miter"/>
     <use xlink:href="#mb98c14bf60" x="127.1154" y="160.293201" style="fill: #ff0000; stroke: #ff0000; stroke-linejoin: miter"/>
     <use xlink:href="#mb98c14bf60" x="151.880621" y="149.308004" style="fill: #ff0000; stroke: #ff0000; stroke-linejoin: miter"/>
     <use xlink:href="#mb98c14bf60" x="176.645842" y="174.40557" style="fill: #ff0000; stroke: #ff0000; stroke-linejoin: miter"/>
     <use xlink:href="#mb98c14bf60" x="201.411063" y="147.944878" style="fill: #ff0000; stroke: #ff0000; stroke-linejoin: miter"/>
     <use xlink:href="#mb98c14bf60" x="226.176284" y="150.430579" style="fill: #ff0000; stroke: #ff0000; stroke-linejoin: miter"/>
     <use xlink:href="#mb98c14bf60" x="250.941505" y="151.87389" style="fill: #ff0000; stroke: #ff0000; stroke-linejoin: miter"/>
     <use xlink:href="#mb98c14bf60" x="275.706726" y="170.316191" style="fill: #ff0000; stroke: #ff0000; stroke-linejoin: miter"/>
     <use xlink:href="#mb98c14bf60" x="300.471947" y="121.404001" style="fill: #ff0000; stroke: #ff0000; stroke-linejoin: miter"/>
     <use xlink:href="#mb98c14bf60" x="325.237168" y="145.779912" style="fill: #ff0000; stroke: #ff0000; stroke-linejoin: miter"/>
     <use xlink:href="#mb98c14bf60" x="350.002389" y="123.729335" style="fill: #ff0000; stroke: #ff0000; stroke-linejoin: miter"/>
     <use xlink:href="#mb98c14bf60" x="374.767611" y="132.549566" style="fill: #ff0000; stroke: #ff0000; stroke-linejoin: miter"/>
     <use xlink:href="#mb98c14bf60" x="399.532832" y="172.56134" style="fill: #ff0000; stroke: #ff0000; stroke-linejoin: miter"/>
     <use xlink:href="#mb98c14bf60" x="424.298053" y="85.802342" style="fill: #ff0000; stroke: #ff0000; stroke-linejoin: miter"/>
     <use xlink:href="#mb98c14bf60" x="449.063274" y="140.888693" style="fill: #ff0000; stroke: #ff0000; stroke-linejoin: miter"/>
     <use xlink:href="#mb98c14bf60" x="473.828495" y="176.410168" style="fill: #ff0000; stroke: #ff0000; stroke-linejoin: miter"/>
     <use xlink:href="#mb98c14bf60" x="498.593716" y="178.094031" style="fill: #ff0000; stroke: #ff0000; stroke-linejoin: miter"/>
     <use xlink:href="#mb98c14bf60" x="523.358937" y="175.528145" style="fill: #ff0000; stroke: #ff0000; stroke-linejoin: miter"/>
     <use xlink:href="#mb98c14bf60" x="548.124158" y="170.316191" style="fill: #ff0000; stroke: #ff0000; stroke-linejoin: miter"/>
     <use xlink:href="#mb98c14bf60" x="572.889379" y="171.11803" style="fill: #ff0000; stroke: #ff0000; stroke-linejoin: miter"/>
     <use xlink:href="#mb98c14bf60" x="597.6546" y="178.49495" style="fill: #ff0000; stroke: #ff0000; stroke-linejoin: miter"/>
     <use xlink:href="#mb98c14bf60" x="622.419821" y="183.867273" style="fill: #ff0000; stroke: #ff0000; stroke-linejoin: miter"/>
    </g>
   </g>
   <g id="patch_54">
    <path d="M 65.45 191.16 
L 65.45 30.72 
" style="fill: none; stroke: #000000; stroke-width: 0.8; stroke-linejoin: miter; stroke-linecap: square"/>
   </g>
   <g id="patch_55">
    <path d="M 659.32 191.16 
L 659.32 30.72 
" style="fill: none; stroke: #000000; stroke-width: 0.8; stroke-linejoin: miter; stroke-linecap: square"/>
   </g>
   <g id="patch_56">
    <path d="M 65.45 191.16 
L 659.32 191.16 
" style="fill: none; stroke: #000000; stroke-width: 0.8; stroke-linejoin: miter; stroke-linecap: square"/>
   </g>
   <g id="patch_57">
    <path d="M 65.45 30.72 
L 659.32 30.72 
" style="fill: none; stroke: #000000; stroke-width: 0.8; stroke-linejoin: miter; stroke-linecap: square"/>
   </g>
   <g id="legend_2">
    <g id="patch_58">
     <path d="M 529.220781 86.754375 
L 648.82 86.754375 
Q 651.82 86.754375 651.82 83.754375 
L 651.82 41.22 
Q 651.82 38.22 648.82 38.22 
L 529.220781 38.22 
Q 526.220781 38.22 526.220781 41.22 
L 526.220781 83.754375 
Q 526.220781 86.754375 529.220781 86.754375 
z
" style="fill: #ffffff; opacity: 0.8; stroke: #cccccc; stroke-linejoin: miter"/>
    </g>
    <g id="line2d_32">
     <path d="M 532.220781 50.367656 
L 547.220781 50.367656 
L 562.220781 50.367656 
" style="fill: none; stroke: #0000ff; stroke-width: 1.5; stroke-linecap: square"/>
     <g>
      <use xlink:href="#m62c351b0e8" x="547.220781" y="50.367656" style="fill: #0000ff; stroke: #0000ff"/>
     </g>
    </g>
    <g id="text_13">
     <!-- POI (%) -->
     <g transform="translate(574.220781 55.617656) scale(0.15 -0.15)">
      <use xlink:href="#DejaVuSans-50"/>
      <use xlink:href="#DejaVuSans-4f" x="60.302734"/>
      <use xlink:href="#DejaVuSans-49" x="139.013672"/>
      <use xlink:href="#DejaVuSans-20" x="168.505859"/>
      <use xlink:href="#DejaVuSans-28" x="200.292969"/>
      <use xlink:href="#DejaVuSans-25" x="239.306641"/>
      <use xlink:href="#DejaVuSans-29" x="334.326172"/>
     </g>
    </g>
    <g id="line2d_33">
     <path d="M 532.220781 72.384844 
L 547.220781 72.384844 
L 562.220781 72.384844 
" style="fill: none; stroke: #ff0000; stroke-width: 1.5; stroke-linecap: square"/>
     <g>
      <use xlink:href="#mb98c14bf60" x="547.220781" y="72.384844" style="fill: #ff0000; stroke: #ff0000; stroke-linejoin: miter"/>
     </g>
    </g>
    <g id="text_14">
     <!-- POPU (%) -->
     <g transform="translate(574.220781 77.634844) scale(0.15 -0.15)">
      <use xlink:href="#DejaVuSans-50"/>
      <use xlink:href="#DejaVuSans-4f" x="60.302734"/>
      <use xlink:href="#DejaVuSans-50" x="139.013672"/>
      <use xlink:href="#DejaVuSans-55" x="199.316406"/>
      <use xlink:href="#DejaVuSans-20" x="272.509766"/>
      <use xlink:href="#DejaVuSans-28" x="304.296875"/>
      <use xlink:href="#DejaVuSans-25" x="343.310547"/>
      <use xlink:href="#DejaVuSans-29" x="438.330078"/>
     </g>
    </g>
   </g>
  </g>
 </g>
 <defs>
  <clipPath id="pa59a12f85c">
   <rect x="65.45" y="30.72" width="593.87" height="160.44"/>
  </clipPath>
 </defs>
</svg>
